<?xml version="1.0" encoding="utf-8"?>
<!-- Generator: Adobe Illustrator 25.0.0, SVG Export Plug-In . SVG Version: 6.00 Build 0)  -->
<svg version="1.1" id="Layer_1" xmlns="http://www.w3.org/2000/svg" xmlns:xlink="http://www.w3.org/1999/xlink" x="0px" y="0px"
	 viewBox="0 0 300 300" style="enable-background:new 0 0 300 300;" xml:space="preserve">
<g>
	<g>
		<path d="M67.5,193.2c0.8,1.2,1,2.3,0.9,3.3c-0.2,1-0.8,1.8-1.8,2.5c-0.3,0.2-0.6,0.3-0.9,0.4c-0.3,0.1-0.6,0.1-0.9,0.1
			c-0.3,0-0.5,0-0.8-0.1c-0.3-0.1-0.5-0.1-0.6-0.2c-0.2-0.1-0.3-0.2-0.5-0.2l-2.4,4.1l-2-3.2l2.2-3.5l-0.5-0.7l-3.2,2l-1.8-2.8
			l9.5-5.9L67.5,193.2z M62.2,194.5l0.7,1c0.2,0.3,0.5,0.6,0.8,0.7c0.3,0.1,0.7,0,1-0.2c0.4-0.2,0.6-0.5,0.6-0.9
			c0.1-0.4,0-0.7-0.2-1l-0.7-1L62.2,194.5z"/>
		<path d="M61.5,204.3l7.1-5.2l2,2.7l-7.1,5.2L61.5,204.3z M70.3,197.6c0.3-0.3,0.7-0.3,1.1-0.2c0.4,0.1,0.8,0.4,1.1,0.8
			c0.3,0.5,0.5,0.9,0.5,1.3c0,0.4-0.2,0.7-0.5,1c-0.3,0.3-0.7,0.3-1.1,0.2c-0.4-0.1-0.8-0.4-1.1-0.8c-0.3-0.4-0.5-0.9-0.5-1.3
			C69.8,198.2,70,197.8,70.3,197.6z"/>
		<path d="M66.7,212.6c0.5,0.6,1.2,0.6,1.8,0l0.9-0.8l-0.1-0.1c-0.4,0.2-0.9,0.2-1.3,0c-0.5-0.2-0.9-0.5-1.3-0.9
			c-0.6-0.7-0.9-1.5-0.7-2.4c0.2-0.9,0.8-1.8,1.8-2.7l0.2-0.2c1-0.9,2-1.4,2.9-1.4c0.9-0.1,1.7,0.3,2.3,1c0.4,0.5,0.6,1,0.7,1.4
			c0.1,0.5,0,0.9-0.2,1.4l0.1,0.1l1.1-0.9l2.2,2.5l-6.6,5.7c-0.4,0.3-0.8,0.5-1.2,0.7c-0.4,0.1-0.8,0.1-1.2,0
			c-0.4-0.1-0.8-0.2-1.1-0.4c-0.4-0.2-0.7-0.5-1-0.7c-0.3-0.3-0.6-0.6-0.9-0.9c-0.5-0.5-0.8-1.1-1.1-1.6c-0.2-0.5-0.4-1-0.4-1.4
			c0-0.4,0.1-0.8,0.2-1.1c0.1-0.3,0.4-0.6,0.6-0.9l2,2.3C66.1,211.6,66.2,212,66.7,212.6z M72.5,208.7c0.1-0.3,0-0.7-0.2-0.9
			c-0.2-0.3-0.5-0.4-0.9-0.3c-0.4,0-0.8,0.2-1.2,0.6l-0.4,0.3c-0.4,0.4-0.7,0.7-0.8,1.1c-0.1,0.3,0,0.7,0.2,0.9
			c0.2,0.3,0.5,0.4,0.9,0.3c0.4,0,0.8-0.2,1.2-0.6l0.4-0.3C72.2,209.4,72.5,209.1,72.5,208.7z"/>
		<path d="M72,217l8.1-8.5l2.4,2.3l-3,3.2l0.1,0.1c0.2-0.1,0.3-0.2,0.6-0.2c0.2,0,0.4-0.1,0.7,0c0.3,0,0.5,0.1,0.8,0.2
			c0.3,0.1,0.6,0.3,0.8,0.6c0.6,0.6,1,1.3,1,2c0,0.7-0.4,1.5-1.1,2.3l-3.9,4.1l-2.4-2.3l3.3-3.5c0.2-0.2,0.3-0.4,0.4-0.6
			c0.1-0.2,0.1-0.4,0.1-0.5c0-0.1-0.1-0.3-0.1-0.4c-0.1-0.1-0.1-0.2-0.2-0.3c-0.2-0.2-0.5-0.3-0.8-0.3c-0.3,0-0.6,0.2-0.9,0.5
			l-3.3,3.5L72,217z"/>
		<path d="M86,218.1l1.3-1.7l2.5,2l-1.3,1.7l1.3,1l-1.5,1.9l-1.3-1l-1.8,2.3c-0.4,0.5-0.3,0.9,0.3,1.3c0.2,0.2,0.4,0.3,0.5,0.4
			l-1.4,1.8c-0.3-0.2-0.7-0.5-1.1-0.8c-1-0.8-1.5-1.5-1.7-2.1c-0.2-0.7,0-1.3,0.6-2.1l2.3-2.9l-1-0.8l1.5-1.9L86,218.1z"/>
		<path d="M104.8,230.3l-6.4,6.5l-3-1.8l1.7-5.3l-0.1-0.1l-3.8,4.1l-3.1-1.8l2.6-8.7l2.9,1.7l-2.2,5.4l0.1,0.1l3.9-4.4l2.7,1.6
			l-1.9,5.6l0.1,0.1l3.7-4.6L104.8,230.3z"/>
		<path d="M106.4,239.4c-0.2,0.2-0.6,0.4-1,0.4c-0.4,0.1-0.9,0-1.5-0.3c-0.8-0.4-1.4-0.9-1.7-1.5c-0.3-0.6-0.3-1.4,0.1-2.1
			c0.3-0.8,0.9-1.2,1.6-1.5c0.7-0.2,1.5-0.1,2.5,0.3l1.7,0.8l0.3-0.6c0.1-0.2,0.1-0.4,0-0.6c-0.1-0.2-0.2-0.3-0.5-0.4
			c-0.2-0.1-0.5-0.1-0.7-0.1c-0.2,0.1-0.3,0.2-0.4,0.4L104,233c0.1-0.3,0.3-0.5,0.5-0.7c0.2-0.2,0.4-0.4,0.7-0.6
			c0.3-0.2,0.6-0.3,0.9-0.4c0.3-0.1,0.8-0.1,1.2,0c0.5,0.1,1,0.2,1.6,0.5c0.5,0.2,1,0.5,1.4,0.8s0.7,0.6,1,1
			c0.2,0.4,0.4,0.8,0.4,1.3c0,0.5-0.1,1-0.3,1.5l-2.3,5.3l-2.8-1.2l0.4-0.9L106.4,239.4z M106,238.1c0.2,0.1,0.5,0.1,0.7,0.1
			c0.2-0.1,0.4-0.2,0.5-0.4l0.3-0.7l-0.8-0.3c-0.3-0.1-0.5-0.2-0.8-0.1c-0.2,0.1-0.4,0.2-0.5,0.4c-0.1,0.2-0.1,0.4,0,0.6
			C105.6,237.8,105.8,238,106,238.1z"/>
		<path d="M122.1,236.8c-3.2,4.5-4.9,6.8-5,6.9l-0.4,0.5c-0.3,0.4-0.7,0.8-1,1c-0.3,0.3-0.7,0.5-1.2,0.6c-0.4,0.2-0.9,0.2-1.5,0.2
			c-0.5,0-1.1-0.2-1.8-0.4c-0.7-0.2-1.2-0.4-1.5-0.7l0.7-2.1c0.2,0.1,0.4,0.2,0.8,0.3c0.5,0.2,0.9,0.2,1.1,0.2
			c0.2-0.1,0.4-0.2,0.5-0.5l0-0.1l0.2-9.1l3.5,1.2l-0.9,6.3l0.1,0l3.1-5.6L122.1,236.8z"/>
		<path d="M124.9,249.1l-2.5-0.6l1.9-5.4l3,0.7L124.9,249.1z"/>
		<path d="M138.1,237.5c1.4,0.2,2.5,0.6,3.1,1.4c0.7,0.8,0.9,1.7,0.8,2.9c0,0.3-0.1,0.7-0.3,1c-0.1,0.3-0.3,0.6-0.5,0.8
			c-0.2,0.2-0.4,0.4-0.6,0.6c-0.2,0.2-0.4,0.3-0.6,0.4c-0.2,0.1-0.3,0.2-0.5,0.2l1.7,4.4l-3.7-0.5l-1.3-3.9l-0.9-0.1l-0.4,3.7
			l-3.3-0.4l1.3-11.1L138.1,237.5z M135.7,242.4l1.2,0.1c0.4,0,0.7,0,1-0.2c0.3-0.2,0.5-0.5,0.5-0.9c0.1-0.4,0-0.8-0.3-1.1
			c-0.2-0.3-0.6-0.4-0.9-0.5l-1.2-0.1L135.7,242.4z"/>
		<path d="M143,249.1l0.4-8.8l3.3,0.1l-0.4,8.8L143,249.1z M143.3,238c0-0.4,0.2-0.8,0.5-1c0.3-0.2,0.8-0.4,1.3-0.3
			c0.6,0,1,0.2,1.3,0.4c0.3,0.3,0.5,0.6,0.4,1c0,0.4-0.2,0.8-0.5,1c-0.3,0.2-0.8,0.4-1.3,0.3c-0.6,0-1-0.2-1.3-0.4
			C143.4,238.7,143.3,238.4,143.3,238z"/>
		<path d="M152.7,250.2c0.8,0,1.2-0.5,1.2-1.4l0-1.2l-0.2,0c-0.1,0.4-0.4,0.8-0.8,1c-0.4,0.3-0.9,0.4-1.6,0.4c-1,0-1.7-0.3-2.3-1
			c-0.6-0.7-0.9-1.7-0.9-3.1l0-0.3c0-1.4,0.2-2.4,0.7-3.2c0.5-0.7,1.3-1.1,2.2-1.2c0.6,0,1.1,0.1,1.6,0.3c0.4,0.2,0.7,0.6,0.9,1
			l0.2,0l-0.1-1.4l3.3-0.1l0.3,8.8c0,0.5-0.1,1-0.2,1.4c-0.2,0.4-0.4,0.7-0.7,1c-0.3,0.2-0.7,0.4-1.1,0.6c-0.4,0.2-0.8,0.3-1.2,0.4
			c-0.4,0.1-0.8,0.1-1.3,0.1c-0.7,0-1.4,0-1.9-0.2c-0.6-0.1-1-0.3-1.3-0.6c-0.3-0.3-0.6-0.5-0.8-0.9c-0.2-0.3-0.3-0.7-0.3-1.1
			l3.1-0.1C151.6,250,152,250.2,152.7,250.2z M153.4,243.2c-0.2-0.3-0.5-0.4-0.8-0.4c-0.3,0-0.6,0.2-0.8,0.5
			c-0.2,0.3-0.3,0.7-0.3,1.3l0,0.5c0,0.6,0.1,1,0.4,1.3c0.2,0.3,0.5,0.4,0.8,0.4c0.3,0,0.6-0.2,0.8-0.5c0.2-0.3,0.3-0.7,0.3-1.3
			l0-0.5C153.7,243.9,153.6,243.5,153.4,243.2z"/>
		<path d="M159.5,248.8l-1.6-11.6l3.3-0.5l0.6,4.4l0.2,0c0-0.2,0.1-0.4,0.2-0.6c0.1-0.2,0.2-0.4,0.4-0.6c0.2-0.2,0.4-0.4,0.7-0.5
			c0.3-0.1,0.6-0.2,1-0.3c0.9-0.1,1.6,0.1,2.2,0.5c0.6,0.5,0.9,1.2,1.1,2.3l0.8,5.6l-3.3,0.5l-0.7-4.8c0-0.3-0.1-0.5-0.2-0.7
			c-0.1-0.2-0.2-0.3-0.3-0.4c-0.1-0.1-0.2-0.1-0.4-0.1c-0.1,0-0.2,0-0.4,0c-0.3,0-0.5,0.2-0.7,0.5c-0.2,0.3-0.2,0.6-0.2,1.1l0.7,4.8
			L159.5,248.8z"/>
		<path d="M169,238.6l-0.5-2.1l3.1-0.7l0.5,2.1l1.6-0.4l0.5,2.4l-1.6,0.4l0.7,2.8c0.1,0.6,0.5,0.8,1.2,0.6c0.3-0.1,0.5-0.1,0.6-0.2
			l0.5,2.3c-0.4,0.1-0.8,0.3-1.3,0.4c-1.2,0.3-2.1,0.3-2.7,0c-0.6-0.2-1.1-0.8-1.3-1.7l-0.8-3.6l-1.3,0.3l-0.5-2.4L169,238.6z"/>
		<path d="M178.9,236l-0.7-2l3-1l0.7,2l1.6-0.5l0.8,2.3l-1.6,0.5l0.9,2.8c0.2,0.6,0.6,0.7,1.3,0.5c0.3-0.1,0.5-0.2,0.6-0.2l0.7,2.2
			c-0.4,0.2-0.8,0.4-1.3,0.5c-1.1,0.4-2.1,0.5-2.7,0.3c-0.7-0.2-1.1-0.7-1.4-1.6l-1.2-3.5l-1.3,0.4l-0.8-2.3L178.9,236z"/>
		<path d="M183.6,231.7c-0.2-0.4-0.1-0.8,0.1-1.1c0.2-0.4,0.6-0.6,1.1-0.9c0.5-0.2,1-0.3,1.4-0.1c0.4,0.1,0.7,0.4,0.8,0.8
			c0.2,0.4,0.1,0.8-0.1,1.1c-0.2,0.4-0.6,0.6-1.1,0.9c-0.5,0.2-1,0.3-1.4,0.1C184.1,232.3,183.8,232.1,183.6,231.7z M188,241.9
			l-3.3-8.2l3.1-1.3l3.3,8.2L188,241.9z"/>
		<path d="M193.3,239.9l-4.1-7.8l2.8-1.5l0.7,1.4l0.1-0.1c0-0.2-0.1-0.4-0.1-0.6c0-0.2,0.1-0.4,0.2-0.7c0.1-0.2,0.2-0.5,0.5-0.7
			c0.2-0.2,0.5-0.4,0.8-0.6c0.6-0.3,1.1-0.4,1.6-0.3c0.5,0.1,0.9,0.3,1.3,0.7l0.1-0.1c-0.1-0.4,0-0.9,0.2-1.4
			c0.3-0.5,0.7-0.9,1.3-1.3c0.8-0.4,1.5-0.5,2.1-0.2c0.7,0.2,1.2,0.7,1.6,1.5l2.8,5.4l-2.9,1.6l-2.3-4.4c-0.4-0.8-0.9-1-1.5-0.7
			c-0.3,0.1-0.4,0.3-0.5,0.6c-0.1,0.3,0,0.6,0.2,1l2.3,4.4l-2.8,1.5l-2.3-4.4c-0.4-0.8-0.9-1-1.5-0.7c-0.6,0.3-0.6,0.8-0.2,1.6
			l2.3,4.4L193.3,239.9z"/>
		<path d="M210.8,229.9c-0.5,0.4-1.1,0.6-1.6,0.8c-0.5,0.2-1.1,0.2-1.6,0.2c-0.5-0.1-1-0.2-1.5-0.6c-0.5-0.3-1-0.8-1.4-1.4l-0.3-0.4
			c-0.4-0.6-0.7-1.2-0.8-1.8c-0.1-0.6-0.1-1.1,0-1.6c0.1-0.5,0.4-1,0.7-1.4c0.3-0.4,0.7-0.8,1.2-1.2c1.1-0.7,2.1-1,3.2-0.8
			c1.1,0.2,2,0.8,2.8,1.9l0.5,0.8l-4.4,3.1l0.2,0.3c0.2,0.3,0.5,0.5,0.8,0.5c0.3,0,0.6,0,0.9-0.2c0.3-0.2,0.5-0.4,0.6-0.7
			c0.1-0.3,0.1-0.5-0.1-0.7l2.4-1.7c0.2,0.2,0.3,0.5,0.4,0.8c0.1,0.3,0.1,0.6,0.1,1c0,0.4-0.1,0.7-0.2,1.1c-0.1,0.4-0.3,0.7-0.7,1.1
			C211.6,229.2,211.2,229.5,210.8,229.9z M206.5,225.9l1.8-1.3c-0.2-0.3-0.5-0.5-0.8-0.6c-0.3-0.1-0.6,0-0.8,0.2
			c-0.3,0.2-0.4,0.4-0.5,0.8C206.2,225.3,206.3,225.6,206.5,225.9z"/>
	</g>
	<g>
		<g>
			<polygon points="94.4,145.5 3,159.1 99.7,133.7 			"/>
		</g>
		<g>
			<polygon points="81.5,174.7 6.7,163.4 86.6,164.4 			"/>
		</g>
		<g>
			<polygon points="88.5,159.1 5.2,161 92.8,150.4 			"/>
		</g>
		<g>
			<path d="M220.8,195c0,0,4.6-44-36.6-84.1c-2.8-2.8-6.9-3.8-10.8-2.8L17.9,150.9L187.2,92c37.1-4,63.4,23.7,63.4,23.7
				c-12-6.3-42.1-7.3-49.6-7.4c-0.7,0-1,0.8-0.5,1.2c7.7,8,19.8,18.9,38.9,33.6v-2.3c0-1.3,1.1-2.3,2.4-2.2l28.7,2.1
				c3.8,0.3,7.3,2,9.8,4.8c9.4,10.7,27.5,44.1,8,59.1L220.8,195z"/>
		</g>
		<g id="XMLID_10_">
			<g>
				<g>
					<path d="M201.6,206.5c-15.1,12.6-34,19.5-53.9,19.5c-22.5,0-43.7-8.8-59.6-24.7c-5.1-5.1-9.4-10.7-13-16.8l-7.4-1.3
						c15,28.9,45.2,48.6,80,48.6c23.7,0,45.3-9.2,61.4-24.1L201.6,206.5z"/>
				</g>
				<g>
					<path d="M212.4,201.5l2.4,0.4c0,0,0,0,0.1-0.1L212.4,201.5z"/>
				</g>
				<g>
					<path d="M64.1,131.2c2.3-18.5,10.6-35.6,24-49c15.9-15.9,37.1-24.7,59.6-24.7s43.7,8.8,59.6,24.7c2.8,2.8,5.4,5.8,7.8,8.9
						c3.3,0.9,6.5,2.1,9.4,3.3c-15.9-25.7-44.3-42.8-76.7-42.8c-46.9,0-85.5,35.9-89.8,81.7L64.1,131.2z"/>
				</g>
			</g>
			<g>
				<polyline points="270.8,215 5.2,169 288.3,208.6 				"/>
			</g>
		</g>
	</g>
	<g>
		<g>
			<g>
				<path d="M149.5,121.3c0.7,11.1,0.3,22-1.1,33c6,10.9,12.2,21.7,18.9,32.2c-4.8-0.7-9.6-1.3-14.5-2c-3.3-5.8-6.4-11.6-9.4-17.5
					c-0.2,0-0.3,0-0.4,0c-1,5.3-2.2,10.5-3.6,15.7c-4.6-0.6-9.1-1.3-13.7-1.9c3.6-8.5,6.3-17.2,8.5-26.2
					c-4.2-8.8-8.3-17.6-12.4-26.4c3.3-0.8,6.7-1.7,10-2.5c2.6,5.7,5.2,11.5,7.7,17.2c0.2,0,0.2,0,0.4,0c0.4-6.4,0.3-12.8,0-19.2
					C143.1,122.9,146.3,122.1,149.5,121.3z"/>
			</g>
			<g>
				<path d="M182.6,188.6c-4.3-0.6-8.7-1.2-13-1.8c-6.4-21.9-11.4-44.3-18.6-65.9c2.9-0.7,5.7-1.4,8.6-2.1
					C168.3,141.7,174.6,165.4,182.6,188.6z"/>
			</g>
			<g>
				<path d="M180.5,167.9c3.6,0.2,7.2,0.4,10.9,0.6c0.7,1.9,1.9,3.7,3.4,5.2c1.6,1.5,3.2,2.4,5,2.5c1.7,0.1,2.7-0.3,3-1.4
					c0.3-1.1,0.1-2.5-0.6-4.3c-0.8-1.9-1.7-3.3-2.9-4.3c-1.2-1-2.8-1.8-4.9-2.6c-2-0.7-3-1.1-5-1.7c-9.4-3.3-14.6-12.8-17.5-21.7
					c-1.9-5.8-3.5-12-3.1-18.1c0.2-3.5,1.7-7.5,5.5-8.5c1.8-0.5,3.8-0.2,5.9,0.9c2.2,1.1,4.3,2.8,6.4,5.1c2.3,2.5,4.3,5.2,6.1,8
					c1.9,3,3.6,6.2,5.1,9.5c-2.9,0.3-5.8,0.5-8.7,0.8c-0.8-1.9-1.9-3.6-3.3-5.1c-1.3-1.5-2.6-2.1-3.9-1.9c-1.1,0.2-1.7,0.8-1.9,2
					c-0.1,1.2,0.2,2.7,0.8,4.4c1.1,2.9,3.6,4.9,6.5,5.6c1.9,0.5,2.9,0.8,4.8,1.3c1.1,0.3,2.2,0.7,3.4,1.4c1.1,0.6,2.4,1.5,3.7,2.8
					c1.4,1.2,2.7,2.7,4.1,4.4c1.3,1.7,2.8,3.9,4.3,6.6c1.7,2.9,3.2,5.9,4.5,8.9c2.5,5.7,5.4,12.8,4.5,19.4
					c-0.8,5.5-6.2,5.7-10.3,5.3c-2.6-0.2-5.3-1.2-7.8-2.4c-2.5-1.2-4.7-2.6-6.5-4.3c-1.9-1.6-3.6-3.5-5.1-5.6
					c-1.6-2.1-2.9-4.2-3.9-6.3C182.1,172.4,181.2,170.2,180.5,167.9z"/>
			</g>
		</g>
	</g>
	<g>
		<path d="M113.4,130.2c-3.5,0.9-7,1.7-10.4,2.6l-18.3,42.2c4,0.6,8,1.1,11.9,1.7c1.3-3.1,1.9-4.6,3.1-7.8c3.6,0.3,7.2,0.6,10.7,1
			c0.4,3,0.8,6,1.3,9c4.6,0.6,9.2,1.3,13.8,1.9C120.7,164.1,117.2,147.2,113.4,130.2z M102.9,159.5c1.6-5.2,3-10.4,4.2-15.8
			c0.2,0,0.3,0,0.5-0.1c0.5,5.3,1.1,10.6,1.6,16C106.7,159.6,105.4,159.5,102.9,159.5z"/>
	</g>
</g>
</svg>
